<svg width="200" height="56" viewBox="0 0 200 56" fill="none" xmlns="http://www.w3.org/2000/svg">
<path d="M93.3816 51.6283H95.4422C95.4422 52.6446 96.4198 53.4048 97.6854 53.4048C98.8658 53.4048 99.8109 52.7625 99.8109 51.8315C99.8109 49.5143 93.5844 50.5632 93.5844 46.5874C93.5844 44.4897 95.3733 43.136 97.6205 43.136C99.8677 43.136 101.689 44.6076 101.689 46.5711H99.6284C99.6284 45.6401 98.7522 44.9491 97.588 44.9491C96.5415 44.9491 95.645 45.5223 95.645 46.4369C95.645 48.7541 101.892 47.5549 101.892 51.612C101.892 53.795 100.018 55.2138 97.6732 55.2138C95.3286 55.2138 93.3856 53.6568 93.3856 51.6283H93.3816Z" fill="#13576A"/>
<path d="M105.027 49.1769C105.027 45.7418 107.676 43.136 111.156 43.136C114.637 43.136 117.285 45.7418 117.285 49.1769C117.285 52.612 114.653 55.2178 111.156 55.2178C107.66 55.2178 105.027 52.612 105.027 49.1769ZM115.221 49.1769C115.221 46.8435 113.464 45.0832 111.152 45.0832C108.84 45.0832 107.1 46.8435 107.1 49.1769C107.1 51.5104 108.856 53.2706 111.152 53.2706C113.448 53.2706 115.221 51.5104 115.221 49.1769Z" fill="#13576A"/>
<path d="M121.059 43.3391H123.066V53.116H128.214V55.0104H121.054V43.3391H121.059Z" fill="#13576A"/>
<path d="M130.932 50.5102V43.3391H132.924V50.4776C132.924 52.0671 134.121 53.2705 135.711 53.2705C137.301 53.2705 138.497 52.0712 138.497 50.4776V43.3391H140.505V50.5102C140.505 53.2014 138.445 55.2136 135.711 55.2136C132.977 55.2136 130.932 53.2014 130.932 50.5102Z" fill="#13576A"/>
<path d="M147.169 45.2335H143.843V43.3391H152.487V45.2335H149.177V55.0104H147.169V45.2335Z" fill="#13576A"/>
<path d="M156.065 43.3391H158.073V55.0104H156.065V43.3391Z" fill="#13576A"/>
<path d="M161.837 49.1769C161.837 45.7418 164.486 43.136 167.966 43.136C171.447 43.136 174.096 45.7418 174.096 49.1769C174.096 52.612 171.463 55.2178 167.966 55.2178C164.47 55.2178 161.837 52.612 161.837 49.1769ZM172.031 49.1769C172.031 46.8435 170.274 45.0832 167.962 45.0832C165.65 45.0832 163.91 46.8435 163.91 49.1769C163.91 51.5104 165.666 53.2706 167.962 53.2706C170.258 53.2706 172.031 51.5104 172.031 49.1769Z" fill="#13576A"/>
<path d="M177.873 43.3391H179.917L185.742 51.5956V43.3391H187.75V55.0104H185.71L179.885 46.7539V55.0104H177.877V43.3391H177.873Z" fill="#13576A"/>
<path d="M191.494 51.6283H193.555C193.555 52.6446 194.532 53.4048 195.798 53.4048C196.978 53.4048 197.923 52.7625 197.923 51.8315C197.923 49.5143 191.697 50.5632 191.697 46.5874C191.697 44.4897 193.486 43.136 195.729 43.136C197.972 43.136 199.797 44.6076 199.797 46.5711H197.737C197.737 45.6401 196.86 44.9491 195.696 44.9491C194.65 44.9491 193.753 45.5223 193.753 46.4369C193.753 48.7541 200 47.5549 200 51.612C200 53.795 198.126 55.2138 195.781 55.2138C193.437 55.2138 191.494 53.6568 191.494 51.6283Z" fill="#13576A"/>
<path d="M0 18.7488C0 9.03287 7.45155 1.6626 17.2396 1.6626C25.2631 1.6626 31.7573 6.68723 33.5219 13.7689H28.8895C27.2669 9.07759 22.7278 5.8701 17.2355 5.8701C9.97867 5.8701 4.48635 11.4232 4.48635 18.7447C4.48635 26.0662 9.97867 31.6193 17.2355 31.6193C22.7278 31.6193 27.2629 28.4118 28.8895 23.7205L33.5219 23.7205C31.7533 30.8022 25.259 35.8268 17.2396 35.8268C7.45155 35.8268 0 28.4565 0 18.7406L0 18.7488Z" fill="#13576A"/>
<path d="M35.7245 23.0579C35.7245 15.7852 41.3101 10.2809 48.713 10.2809C56.1159 10.2809 61.6528 15.7852 61.6528 23.0579C61.6528 30.3306 56.0672 35.8349 48.713 35.8349C41.3588 35.8349 35.7245 30.3306 35.7245 23.0579ZM57.4058 23.0579C57.4058 18.0332 53.682 14.2526 48.713 14.2526C43.7439 14.2526 39.9756 18.0332 39.9756 23.0579C39.9756 28.0825 43.6993 31.8632 48.713 31.8632C53.7267 31.8632 57.4058 28.0825 57.4058 23.0579Z" fill="#13576A"/>
<path d="M65.178 4.12215L69.283 0V14.6795C71.1936 11.8542 74.248 10.2769 78.0691 10.2769C83.9914 10.2769 87.9545 14.1999 87.9545 20.1839V35.2577L83.8495 35.2577V21.4725C83.8495 17.1187 81.079 14.2446 76.7346 14.2446C72.3902 14.2446 69.283 17.1634 69.283 21.566V35.2537H65.178V4.11808V4.12215Z" fill="#13576A"/>
<path d="M120.518 10.854H124.623V15.4965C126.485 12.3379 129.543 10.4719 133.361 10.4719H133.636V14.7323H133.361C127.917 14.7323 124.623 17.9885 124.623 23.0131V35.2658H120.518V10.8581V10.854Z" fill="#13576A"/>
<path d="M162.651 10.8542H166.756V14.5373C168.667 11.8096 171.721 10.277 175.543 10.277C181.465 10.277 185.428 14.1999 185.428 20.1839V35.2578H181.323V21.4726C181.323 17.1187 178.552 14.2446 174.208 14.2446C169.864 14.2446 166.756 17.1634 166.756 21.5661V35.2537H162.651V10.8461V10.8542Z" fill="#13576A"/>
<path d="M188.998 28.0826V4.11808L193.103 0V10.8501L199.646 10.8501V14.582L193.103 14.582V27.4077C193.103 29.8957 194.677 31.477 197.257 31.477H199.646V35.2577H196.685C191.765 35.2577 188.998 32.6234 188.998 28.0785V28.0826Z" fill="#13576A"/>
<path d="M117.083 24.7818C117.131 24.2533 117.176 23.6313 117.176 23.0581C117.176 16.0131 111.98 10.6266 104.926 10.2974C104.711 10.2852 104.492 10.2811 104.277 10.2811C104.045 10.2811 103.814 10.2811 103.587 10.2974C101.088 10.4071 98.8087 11.1592 96.9143 12.4072C95.9651 13.0292 95.1174 13.7691 94.3791 14.6106C92.4402 16.8302 91.2963 19.7612 91.2963 23.0581C91.2963 30.3186 96.8576 35.8108 104.329 35.8352H104.382C110.114 35.8352 114.839 32.6764 116.75 27.9852H112.166C110.783 30.4243 107.822 32.0545 104.431 32.0545C99.8471 32.0545 96.4073 29.0868 95.6893 24.7818C95.5879 24.2248 95.5392 23.6516 95.5392 23.0581C95.5392 22.3792 95.6082 21.7207 95.738 21.0946C96.5493 16.9318 99.8917 14.0577 104.24 14.0577C108.589 14.0577 112.118 17.0253 112.836 21.0946H112.767C112.9 21.7207 112.969 22.3792 112.969 23.0581C112.969 23.6516 112.917 24.2289 112.815 24.7818H117.087H117.083Z" fill="#13576A"/>
<path d="M103.583 21.0945L115.606 21.0945V24.7816L99.9042 24.7816L103.583 21.0945Z" fill="#13576A"/>
<path d="M159.221 24.7818C159.27 24.2533 159.314 23.6313 159.314 23.0581C159.314 16.0131 154.118 10.6266 147.064 10.2974C146.849 10.2852 146.63 10.2811 146.415 10.2811C146.184 10.2811 145.953 10.2811 145.726 10.2974C143.227 10.4071 140.947 11.1592 139.053 12.4072C138.104 13.0292 137.256 13.7691 136.518 14.6106C134.579 16.8302 133.435 19.7612 133.435 23.0581C133.435 30.3186 138.996 35.8108 146.468 35.8352H146.521C152.252 35.8352 156.978 32.6764 158.889 27.9852H154.305C152.922 30.4243 149.96 32.0545 146.569 32.0545C141.986 32.0545 138.546 29.0868 137.828 24.7818C137.726 24.2248 137.678 23.6516 137.678 23.0581C137.678 22.3792 137.747 21.7207 137.877 21.0946C138.688 16.9318 142.03 14.0577 146.379 14.0577C150.727 14.0577 154.256 17.0253 154.974 21.0946H154.905C155.039 21.7207 155.108 22.3792 155.108 23.0581C155.108 23.6516 155.055 24.2289 154.954 24.7818H159.225H159.221Z" fill="#13576A"/>
<path d="M145.718 21.0945L157.741 21.0945V24.7816L142.039 24.7816L145.718 21.0945Z" fill="#13576A"/>
</svg>